HIERARCHY
ROOT joint_Root
{
	OFFSET 0.0 0.0 0.0
	CHANNELS 6 Xposition Yposition Zposition Zrotation Xrotation Yrotation 
	JOINT Hips
	{
		OFFSET 4.5925 91.4895 -427.239
		CHANNELS 6 Xposition Yposition Zposition Zrotation Xrotation Yrotation 
		JOINT Spine
		{
			OFFSET 15.7357 0.0 0.0
			CHANNELS 6 Xposition Yposition Zposition Zrotation Xrotation Yrotation 
			JOINT Chest
			{
				OFFSET 8.98455 -0.406207 0.0
				CHANNELS 6 Xposition Yposition Zposition Zrotation Xrotation Yrotation 
				JOINT Neck
				{
					OFFSET 16.3773 0.0 0.0
					CHANNELS 6 Xposition Yposition Zposition Zrotation Xrotation Yrotation 
					JOINT Head
					{
						OFFSET 6.45672 0.0 0.0
						CHANNELS 6 Xposition Yposition Zposition Zrotation Xrotation Yrotation 
						End Site
						{
							OFFSET 0.0 0.0 0.0
						}
					}
				}
				JOINT Shoulder_L
				{
					OFFSET 12.9942 -0.242716 4.98039
					CHANNELS 6 Xposition Yposition Zposition Zrotation Xrotation Yrotation 
					JOINT UpperArm_L
					{
						OFFSET 5.34809 0.0 0.0
						CHANNELS 6 Xposition Yposition Zposition Zrotation Xrotation Yrotation 
						JOINT LowerArm_L
						{
							OFFSET 24.3286 1.87007e-05 0.0
							CHANNELS 6 Xposition Yposition Zposition Zrotation Xrotation Yrotation 
							JOINT Hand_L
							{
								OFFSET 22.2916 0.0 0.0
								CHANNELS 6 Xposition Yposition Zposition Zrotation Xrotation Yrotation 
								End Site
								{
									OFFSET 0.0 0.0 0.0
								}
							}
						}
					}
				}
				JOINT Shoulder_R
				{
					OFFSET 12.9945 -0.242716 -4.98039
					CHANNELS 6 Xposition Yposition Zposition Zrotation Xrotation Yrotation 
					JOINT UpperArm_R
					{
						OFFSET -5.34813 0.0 0.0
						CHANNELS 6 Xposition Yposition Zposition Zrotation Xrotation Yrotation 
						JOINT LowerArm_R
						{
							OFFSET -24.3289 0.000322201 0.0
							CHANNELS 6 Xposition Yposition Zposition Zrotation Xrotation Yrotation 
							JOINT Hand_R
							{
								OFFSET -22.2915 -0.000108084 0.0
								CHANNELS 6 Xposition Yposition Zposition Zrotation Xrotation Yrotation 
								End Site
								{
									OFFSET 0.0 0.0 0.0
								}
							}
						}
					}
				}
			}
		}
		JOINT UpperLeg_L
		{
			OFFSET -2.19248 -6.46944 0.0
			CHANNELS 6 Xposition Yposition Zposition Zrotation Xrotation Yrotation 
			JOINT LowerLeg_L
			{
				OFFSET 39.0811 0.0 -1.23785e-05
				CHANNELS 6 Xposition Yposition Zposition Zrotation Xrotation Yrotation 
				JOINT Foot_L
				{
					OFFSET 40.9854 0.0 -1.26872e-05
					CHANNELS 6 Xposition Yposition Zposition Zrotation Xrotation Yrotation 
					JOINT Toes_L
					{
						OFFSET 11.7543 0.0 0.0
						CHANNELS 6 Xposition Yposition Zposition Zrotation Xrotation Yrotation 
						End Site
						{
							OFFSET 0.0 0.0 0.0
						}
					}
				}
			}
		}
		JOINT UpperLeg_R
		{
			OFFSET -2.19251 6.46944 0.0
			CHANNELS 6 Xposition Yposition Zposition Zrotation Xrotation Yrotation 
			JOINT LowerLeg_R
			{
				OFFSET -39.0811 -0.00228153 -0.0401928
				CHANNELS 6 Xposition Yposition Zposition Zrotation Xrotation Yrotation 
				JOINT Foot_R
				{
					OFFSET -40.9854 0.0 0.0
					CHANNELS 6 Xposition Yposition Zposition Zrotation Xrotation Yrotation 
					JOINT Toes_R
					{
						OFFSET -11.7543 0.0 0.0
						CHANNELS 6 Xposition Yposition Zposition Zrotation Xrotation Yrotation 
						End Site
						{
							OFFSET 0.0 0.0 0.0
						}
					}
				}
			}
		}
	}
}
MOTION
Frames:	4
Frame Time:	0.0333333
0.000000 0.000000 0.000000 0.000000 0.000000 -0.000000 91.602600 87.379400 174.225000 -80.600000 43.102100 170.838000 15.735700 0.000005 -0.000001 42.757000 81.923300 -42.028300 8.984550 -0.406207 -0.000000 3.338570 -11.875400 1.807070 16.377300 -0.000001 -0.000001 1.176630 5.111680 0.298067 6.456720 -0.000001 -0.000000 -1.741200 14.243900 -0.927228 12.994200 -0.242716 4.980390 -87.893900 -5.412340 -68.700300 5.348090 -0.000007 -0.000001 -40.243500 35.005200 -65.861900 24.328600 0.000019 0.000005 5.648410 -3.002060 -117.918000 22.291600 -0.000001 0.000005 10.716400 5.507510 -6.836690 12.994500 -0.242716 -4.980390 91.607000 -4.975470 -72.075100 -5.348130 -0.000001 -0.000004 -65.988800 31.513700 36.849300 -24.328900 0.000322 -0.000009 -7.595120 -1.663520 -77.714300 -22.291500 -0.000108 -0.000004 16.465500 5.651550 -15.161700 -2.192480 -6.469440 -0.000000 -174.278000 -3.642140 10.787100 39.081100 -0.000007 -0.000012 0.027039 -0.056779 25.464600 40.985400 -0.000006 -0.000013 14.937300 11.144800 -75.122700 11.754300 -0.000000 0.000003 -0.056547 -0.320396 -29.796400 -2.192510 6.469440 -0.000001 177.189000 17.458600 148.547000 -39.081100 -0.002282 -0.040193 -0.050919 0.137054 21.590700 -40.985400 0.000008 0.000006 -5.171330 12.689200 -62.921500 -11.754300 -0.000006 -0.000006 -0.027666 -0.206561 -25.030000
0.000000 0.000000 0.000000 0.000000 0.000000 -0.000000 96.866500 85.629900 171.968000 -81.656200 40.359400 171.803000 15.735700 0.000005 -0.000001 45.163700 82.214800 -44.691700 8.984550 -0.406207 -0.000000 3.374330 -10.984100 1.269610 16.377300 -0.000001 -0.000001 0.540924 4.856280 0.809357 6.456720 -0.000001 -0.000000 -2.437630 13.853400 -0.557678 12.994200 -0.242716 4.980390 -88.899700 -2.913620 -69.308900 5.348090 -0.000007 -0.000001 -42.037700 39.217000 -57.609900 24.328600 0.000019 0.000005 9.372840 -3.779090 -111.778000 22.291600 -0.000001 0.000005 9.832660 5.517560 -7.259540 12.994500 -0.242716 -4.980390 90.283600 -0.900305 -72.534700 -5.348130 -0.000001 -0.000004 -64.599400 29.864800 33.134400 -24.328900 0.000322 -0.000009 -7.983730 -1.751190 -77.705000 -22.291500 -0.000108 -0.000004 17.906200 5.655600 -15.569000 -2.192480 -6.469440 -0.000000 -172.747000 -0.793578 11.982700 39.081100 -0.000007 -0.000012 0.030962 -0.054616 29.548600 40.985400 -0.000006 -0.000013 13.943300 11.876800 -75.214700 11.754300 -0.000000 0.000003 -0.112556 -0.474709 -36.455600 -2.192510 6.469440 -0.000001 175.541000 17.734800 147.493000 -39.081100 -0.002282 -0.040193 -0.207783 0.463187 24.501300 -40.985400 0.000008 0.000006 -8.724510 8.949490 -63.193000 -11.754300 -0.000006 -0.000006 -0.031274 -0.223241 -25.721900
0.000000 0.000000 0.000000 0.000000 0.000000 -0.000000 102.379000 84.077300 169.331000 -81.178200 38.593800 171.751000 15.735700 0.000005 -0.000001 50.408300 83.005700 -49.879200 8.984550 -0.406207 -0.000000 3.088030 -8.927510 1.299900 16.377300 -0.000001 -0.000001 0.908073 5.091950 0.267952 6.456720 -0.000001 -0.000000 -2.857600 12.749800 -0.049891 12.994200 -0.242716 4.980390 -90.341000 0.933902 -69.939300 5.348090 -0.000007 -0.000001 -48.657300 42.200200 -42.770900 24.328600 0.000019 0.000005 12.992400 -2.788900 -101.917000 22.291600 -0.000001 0.000005 8.980690 5.513430 -7.084550 12.994500 -0.242716 -4.980390 88.500400 5.035650 -73.386500 -5.348130 -0.000001 -0.000004 -62.051100 29.064700 27.905800 -24.328900 0.000322 -0.000009 -8.793480 -2.015460 -77.188700 -22.291500 -0.000108 -0.000004 19.100600 5.661910 -16.273600 -2.192480 -6.469440 -0.000000 -170.514000 0.962296 11.636400 39.081100 -0.000007 -0.000012 0.060604 -0.083028 36.126000 40.985400 -0.000006 -0.000013 12.780500 11.998300 -71.263100 11.754300 -0.000000 0.000003 -0.247025 -0.718054 -47.746200 -2.192510 6.469440 -0.000001 174.958000 17.059900 144.361000 -39.081100 -0.002282 -0.040193 -0.230609 0.336443 34.808000 -40.985400 0.000008 0.000006 -11.634900 5.882470 -53.238600 -11.754300 -0.000006 -0.000006 -0.040651 -0.262694 -27.365900
0.000000 0.000000 0.000000 0.000000 0.000000 -0.000000 107.675000 82.958100 166.072000 -81.382000 36.934900 173.923000 15.735700 0.000005 -0.000001 61.060500 83.380700 -60.364400 8.984550 -0.406207 -0.000000 3.879230 -6.420710 1.609510 16.377300 -0.000001 -0.000001 0.964363 5.298210 -1.190380 6.456720 -0.000001 -0.000000 -1.811830 11.297500 -1.156490 12.994200 -0.242716 4.980390 -91.670200 4.575130 -69.920400 5.348090 -0.000007 -0.000001 -59.114500 40.678100 -25.451400 24.328600 0.000019 0.000005 12.220800 0.962129 -85.548000 22.291600 -0.000001 0.000005 8.654550 5.521970 -7.448720 12.994500 -0.242716 -4.980390 87.047900 10.258000 -73.847800 -5.348130 -0.000001 -0.000004 -59.085200 30.062700 19.437700 -24.328900 0.000322 -0.000009 -10.956600 -2.427980 -77.653200 -22.291500 -0.000108 -0.000004 20.733300 5.667800 -17.035800 -2.192480 -6.469440 -0.000000 -169.531000 1.821650 8.833280 39.081100 -0.000007 -0.000012 0.162105 -0.147254 47.747800 40.985400 -0.000006 -0.000013 11.665500 11.197500 -59.399000 11.754300 -0.000000 0.000003 -0.365343 -0.867158 -55.469900 -2.192510 6.469440 -0.000001 174.652000 20.613000 145.043000 -39.081100 -0.002282 -0.040193 -0.115552 0.120222 44.663500 -40.985400 0.000008 0.000006 -9.974580 9.049070 -56.690500 -11.754300 -0.000006 -0.000006 -0.014265 -0.133139 -22.004000
